<svg xmlns="http://www.w3.org/2000/svg" viewBox="0 0 128 128" fill="none">
  <rect width="128" height="128" rx="28" fill="#0f172a"/>
  <path d="M64 30 l5.5 1.2 2.4 7.8 a26 26 0 0 1 6.6 3.8 l7.6-2.9 4.4 3.6 -2.2 7.9 a26 26 0 0 1 2.8 7 l7.6 3 0 5.6 -7.6 3 a26 26 0 0 1-2.8 7 l2.2 7.9 -4.4 3.6 -7.6-2.9 a26 26 0 0 1-6.6 3.8 l-2.4 7.8 -5.5 1.2 -5.5-1.2 -2.4-7.8 a26 26 0 0 1-6.6-3.8 l-7.6 2.9 -4.4-3.6 2.2-7.9 a26 26 0 0 1-2.8-7 l-7.6-3 0-5.6 7.6-3 a26 26 0 0 1 2.8-7 l-2.2-7.9 4.4-3.6 7.6 2.9 a26 26 0 0 1 6.6-3.8 l2.4-7.8 z" fill="#f59e0b"/>
  <circle cx="64" cy="64" r="14" fill="#0f172a"/>
  <circle cx="64" cy="64" r="7" fill="#fcd34d"/>
</svg>
